<svg width="142" height="36" viewBox="0 0 142 36" fill="none" xmlns="http://www.w3.org/2000/svg">
<path fill-rule="evenodd" clip-rule="evenodd" d="M105.755 16.3346L115.899 16.3976L121.639 6.73457H137.836C137.411 6.20527 136.956 5.70071 136.473 5.22333C133.073 1.8761 128.494 0 123.723 0C118.952 0 114.372 1.8761 110.972 5.22333C107.968 8.18941 106.118 12.1285 105.755 16.3346ZM141.746 18.2252C141.715 20.6816 141.195 23.1073 140.216 25.3602H124.093L119.843 18.2066L124.091 11.0544H140.393C141.316 13.331 141.776 15.7688 141.746 18.2252ZM136.699 30.544C136.973 30.2635 137.236 29.9755 137.489 29.68L121.636 29.6828L116.313 20.723L105.86 20.6573C106.428 24.6074 108.309 28.2514 111.199 31.0025C114.659 34.2889 119.272 36.0829 124.043 35.9971C128.814 35.9113 133.36 33.9526 136.699 30.544ZM0 29.3583V35.0551H28.8925V27.7394H11.0372L28.7457 6.39612V0.710449H0.1398V8.0192H17.7546L0 29.3583ZM35.0857 35.0551V0.710449H62.165V8.0192H43.5241V14.2012H55.8363V21.2653H43.5241V27.7394H62.3607V35.0551H35.0857ZM70.026 0.710659V35.0554H78.4588V22.546H84.8896L91.3637 35.0554H100.783L93.2776 21.3158C95.156 20.4746 96.7676 19.1342 97.9371 17.4405C99.1148 15.7415 99.7325 13.7171 99.7042 11.65C99.721 10.1303 99.4111 8.6247 98.7955 7.23513C98.2115 5.92227 97.3618 4.74464 96.3001 3.77648C95.1846 2.7811 93.8846 2.01447 92.4737 1.5201C90.9049 0.966569 89.2512 0.692602 87.5877 0.710659H70.026ZM78.463 7.93413H86.802V7.92155C88.1096 7.92901 89.1642 8.29295 89.9657 9.01339C90.7672 9.73383 91.168 10.6658 91.168 11.8094C91.1708 12.9539 90.77 13.8859 89.9657 14.6054C89.1614 15.3249 88.1068 15.6847 86.802 15.6847H78.463V7.93413Z" fill="white"/>
</svg>
