<svg width="52" height="64" viewBox="0 0 52 64" fill="none" xmlns="http://www.w3.org/2000/svg">
<path d="M3.77018 64H48.2297C49.7664 64 51.0085 62.7534 51.0085 61.2174V28.5134C51.0085 26.9774 49.7664 25.7308 48.2297 25.7308H43.5976V17.3913C43.5976 7.80243 35.7033 0 26 0C16.2967 0 8.40231 7.80243 8.40231 17.3913V25.7308H3.77018C2.23354 25.7308 0.991455 26.9774 0.991455 28.5134V61.2174C0.991455 62.7534 2.23354 64 3.77018 64ZM13.9598 17.3913C13.9598 10.8717 19.3588 5.56522 26 5.56522C32.6411 5.56522 38.0402 10.8717 38.0402 17.3913V25.7308H13.9598V17.3913ZM6.5489 31.296H45.451V58.4348H6.5489V31.296Z" fill="#FF6AB9"/>
<path d="M25.9999 38.0964C24.4633 38.0964 23.2212 39.343 23.2212 40.879V48.8484C23.2212 50.3844 24.4633 51.631 25.9999 51.631C27.5365 51.631 28.7786 50.3844 28.7786 48.8484V40.879C28.7786 39.343 27.5365 38.0964 25.9999 38.0964Z" fill="#FF6AB9"/>
</svg>
