<svg width="60" height="64" viewBox="0 0 60 64" fill="none" xmlns="http://www.w3.org/2000/svg">
<path fill-rule="evenodd" clip-rule="evenodd" d="M51.7873 17.566V33.8383H37.4894V42.5532V46.2979V59.5745H0.791504V44.7319V42.6213V0H14.5447H18.2894H51.7873V13.8213V17.566ZM37.5575 30.0936H48.0426V17.566H37.5575V30.0936ZM48.0426 3.74468H18.2894V13.8213H33.8128H37.5575H48.0426V3.74468ZM14.5447 3.74468H4.53619V40.9872H14.5447V17.566V13.8213V3.74468ZM4.53619 55.8298H33.8128V46.2979H14.5447H4.53619V55.8298ZM18.2894 42.6213H33.8128V33.8383V17.566H18.2894V42.6213ZM42.7318 64V37.9915H59.2084V64H42.7318ZM46.4765 60.2554H55.4637V41.7362H46.4765V60.2554Z" fill="#FF6AB9"/>
</svg>
