<svg width="64" height="64" viewBox="0 0 64 64" fill="none" xmlns="http://www.w3.org/2000/svg">
<path d="M62.2222 0H1.77778C0.795733 0 0 0.795733 0 1.77778V62.2222C0 63.2043 0.795733 64 1.77778 64H62.2222C63.2043 64 64 63.2043 64 62.2222V1.77778C64 0.795733 63.2043 0 62.2222 0ZM30.2222 60.4444H3.55556V33.7778H30.2222V60.4444ZM60.4444 60.4444H33.7778V32.736L49.7778 16.736V23.1111C49.7778 24.0932 50.5735 24.8889 51.5556 24.8889C52.5376 24.8889 53.3333 24.0932 53.3333 23.1111V12.4444C53.3333 11.4624 52.5376 10.6667 51.5556 10.6667H40.8889C39.9068 10.6667 39.1111 11.4624 39.1111 12.4444C39.1111 13.4265 39.9068 14.2222 40.8889 14.2222H47.264L31.264 30.2222H3.55556V3.55556H60.4444V60.4444Z" fill="#FF6AB9"/>
</svg>
