<svg width="88" height="64" viewBox="0 0 88 64" fill="none" xmlns="http://www.w3.org/2000/svg">
<path fill-rule="evenodd" clip-rule="evenodd" d="M45.6842 20.7568C45.6842 9.28592 54.9701 0 66.4409 0C77.9118 0 87.2887 9.468 87.2887 20.9388C87.2887 32.4097 78.0028 41.6956 66.532 41.6956C63.3456 41.6956 60.3414 40.8763 57.6102 39.6017C58.1564 40.5121 58.5206 41.6046 58.5206 42.7881C58.5206 44.5178 57.7012 46.0654 56.5177 47.1579C57.155 48.0683 57.5192 49.2518 57.5192 50.4353C57.5192 52.165 56.6998 53.7127 55.5163 54.8051C56.1536 55.7155 56.5177 56.899 56.5177 58.0825C56.5177 61.3599 53.8776 64 50.6002 64H28.2958C23.4708 64 19.192 62.3613 16.6429 60.6316C15.8236 61.542 14.549 62.0882 13.1834 62.0882H5.62726C2.8961 62.0882 0.711182 59.9033 0.711182 57.1721V35.3229C0.711182 32.5918 2.8961 30.4068 5.62726 30.4068H13.0924C14.1849 30.4068 15.1863 30.771 16.0056 31.3172C16.0512 31.3172 16.0739 31.2945 16.0967 31.2717C16.1194 31.2489 16.1422 31.2262 16.1877 31.2262C21.7411 27.7667 27.0213 18.1166 28.5689 14.202C29.6614 11.4708 32.8477 10.1963 36.0341 11.1067C39.2204 12.1081 40.9502 14.7482 40.4039 17.8435C40.185 18.8833 39.6701 21.1731 39.0963 23.7242C38.7156 25.4171 38.309 27.2251 37.9459 28.8592C37.9459 28.9502 37.9459 29.0413 38.0369 29.1323C38.219 29.2233 38.3101 29.2233 38.5832 29.2233C39.053 29.2233 40.111 29.209 41.387 29.1917C43.3254 29.1654 45.7669 29.1323 47.4139 29.1323H47.5049C46.3214 26.5832 45.6842 23.761 45.6842 20.7568ZM13.1834 57.9915C13.6386 57.9915 14.0028 57.6273 14.0028 57.1721V35.3229C14.0028 34.8677 13.6386 34.5036 13.1834 34.5036H5.62726C5.17206 34.5036 4.80791 34.8677 4.80791 35.3229V57.1721C4.80791 57.6273 5.17206 57.9915 5.62726 57.9915H13.1834ZM51.1465 36.7795H53.5135C54.5149 36.7795 55.4253 36.4154 55.4253 35.4139C55.4253 34.4125 54.6059 33.5932 53.6045 33.5932C53.2187 33.5932 52.6031 33.6067 51.8463 33.6233C50.6388 33.6498 49.0719 33.6842 47.5049 33.6842C44.4098 33.7753 39.2209 33.7753 38.3102 33.7753H38.3101C36.9445 33.7753 35.6699 33.229 34.8506 32.1366C34.0312 31.0441 33.7581 29.6785 34.0312 28.404C35.1196 23.5842 35.876 20.0256 36.2439 18.2952C36.3068 17.9991 36.3583 17.7566 36.3982 17.5704C36.6714 16.2959 35.5789 15.7496 34.9416 15.5676C33.9402 15.2945 32.6657 15.3855 32.3926 16.2048C31.027 19.8464 25.3826 30.9531 18.3726 35.2319C18.1906 35.3229 18.0995 35.505 18.0995 35.6871V56.899C18.9189 57.8094 22.7425 60.2674 28.3869 60.2674H50.7823C51.7837 60.2674 52.6031 59.4481 52.6031 58.4467C52.6031 57.4452 51.7837 56.6259 50.7823 56.6259H49.3257C48.1422 56.6259 47.2318 55.7155 47.2318 54.532C47.2318 53.3485 48.2332 52.4381 49.3257 52.4381H51.6927C52.6941 52.4381 53.5135 51.6188 53.5135 50.6174C53.5135 49.6159 52.6941 48.7966 51.6927 48.7966H50.2361C49.0526 48.7966 48.1422 47.8862 48.1422 46.7027C48.1422 45.5192 49.1436 44.6088 50.2361 44.6088H52.6031C53.6045 44.6088 54.4239 43.7895 54.4239 42.7881C54.4239 41.7866 53.6045 40.9673 52.6031 40.9673H51.1465C49.963 40.9673 49.0526 39.9659 49.0526 38.8734C49.0526 37.6899 50.054 36.7795 51.1465 36.7795ZM59.3399 35.7781C61.5248 36.7795 63.8918 37.4168 66.4409 37.4168C75.5448 37.4168 83.192 29.9516 83.192 20.7568C83.192 11.5619 75.7268 4.09673 66.532 4.09673C57.3371 4.09673 49.8719 11.5619 49.8719 20.7568C49.8719 23.8521 50.6913 26.6743 52.1479 29.1323H53.5135C56.7909 29.1323 59.431 31.7724 59.431 35.0498C59.431 35.1864 59.4082 35.3002 59.3854 35.414C59.3627 35.5278 59.3399 35.6415 59.3399 35.7781ZM63.9829 22.6684L71.266 15.3854C72.0854 14.566 73.4509 14.566 74.1792 15.3854C74.9986 16.2047 74.9986 17.4792 74.1792 18.2986L65.4395 27.0383C65.0754 27.4935 64.5292 27.6755 63.9829 27.6755C63.4367 27.6755 62.8905 27.4024 62.5263 27.0383L58.1565 22.6684C57.3371 21.8491 57.3371 20.5745 58.1565 19.7552C58.9758 18.9359 60.2504 18.9359 61.0697 19.7552L63.9829 22.6684Z" fill="#FF6AB9"/>
</svg>
