<svg width="24" height="24" viewBox="0 0 24 24" fill="none" xmlns="http://www.w3.org/2000/svg">
<path d="M7.875 21.75C8.47174 21.75 9.04403 21.5129 9.46599 21.091C9.88795 20.669 10.125 20.0967 10.125 19.5V15" stroke="#000080" stroke-width="2" stroke-linecap="round" stroke-linejoin="round"/>
<path d="M16.125 21.75C15.5283 21.75 14.956 21.5129 14.534 21.091C14.1121 20.669 13.875 20.0967 13.875 19.5V15" stroke="#000080" stroke-width="2" stroke-linecap="round" stroke-linejoin="round"/>
<path d="M14.25 15H15.75C16.3467 15 16.919 15.2371 17.341 15.659C17.7629 16.081 18 16.6533 18 17.25V18C18 18.5967 18.2371 19.169 18.659 19.591C19.081 20.0129 19.6533 20.25 20.25 20.25" stroke="#000080" stroke-width="2" stroke-linecap="round" stroke-linejoin="round"/>
<path d="M9.75 15H8.25C7.65326 15 7.08097 15.2371 6.65901 15.659C6.23705 16.081 6 16.6533 6 17.25V18C6 18.5967 5.76295 19.169 5.34099 19.591C4.91903 20.0129 4.34674 20.25 3.75 20.25" stroke="#000080" stroke-width="2" stroke-linecap="round" stroke-linejoin="round"/>
<path d="M6.04797 7.19098C5.78571 6.5124 5.67894 5.78364 5.73554 5.05835C5.79214 4.33306 6.01065 3.62968 6.37501 3C7.19373 2.99953 7.99937 3.20543 8.71748 3.59868C9.43558 3.99192 10.043 4.55981 10.4836 5.24989L13.5164 5.25C13.957 4.55993 14.5644 3.99192 15.2825 3.59868C16.0006 3.20543 16.8063 2.99953 17.625 3C17.9894 3.62968 18.2079 4.33306 18.2645 5.05835C18.3211 5.78364 18.2143 6.5124 17.952 7.19098C18.473 7.94253 18.7515 8.83554 18.75 9.75V10.5C18.75 11.6935 18.2759 12.8381 17.432 13.682C16.5881 14.5259 15.4435 15 14.25 15H9.75001C8.55653 15 7.41194 14.5259 6.56803 13.682C5.72411 12.8381 5.25001 11.6935 5.25001 10.5V9.75C5.24854 8.83554 5.527 7.94253 6.04797 7.19098Z" stroke="#000080" stroke-width="2" stroke-linecap="round" stroke-linejoin="round"/>
</svg>
