<svg width="64" height="51" viewBox="0 0 64 51" fill="none" xmlns="http://www.w3.org/2000/svg">
<path d="M58.5485 0H5.45151C4.00643 0.00243485 2.62123 0.577569 1.5994 1.5994C0.577571 2.62123 0.00243485 4.00643 0 5.45151V45.4354C0.00243485 46.8805 0.577571 48.2657 1.5994 49.2875C2.62123 50.3093 4.00643 50.8845 5.45151 50.8869H58.5485C59.9936 50.8845 61.3788 50.3093 62.4006 49.2875C63.4224 48.2657 63.9976 46.8805 64 45.4354V5.45151C63.9976 4.00643 63.4224 2.62123 62.4006 1.5994C61.3788 0.577569 59.9936 0.00243485 58.5485 0ZM5.45151 3.63741H58.5485C59.0369 3.63741 59.5054 3.83145 59.8508 4.17684C60.1962 4.52223 60.3902 4.99068 60.3902 5.47914V11.8147H3.63741V5.45151C3.64454 4.9726 3.83796 4.51531 4.17663 4.17664C4.51531 3.83796 4.9726 3.64454 5.45151 3.63741ZM40.5272 15.4521H53.097V17.0452H40.5272V15.4521ZM12.2106 15.4521H31.5948V27.4233H12.2567L12.2106 15.4521ZM58.5485 47.2495H5.45151C4.96305 47.2495 4.4946 47.0555 4.14921 46.7101C3.80382 46.3647 3.60978 45.8962 3.60978 45.4078V15.4521H8.54561V29.265C8.54561 29.7535 8.73965 30.2219 9.08504 30.5673C9.43043 30.9127 9.89888 31.1068 10.3873 31.1068H33.4089C33.8974 31.1068 34.3658 30.9127 34.7112 30.5673C35.0566 30.2219 35.2506 29.7535 35.2506 29.265V15.4521H36.9174V18.8593C36.9174 19.3477 37.1114 19.8162 37.4568 20.1616C37.8022 20.507 38.2707 20.701 38.7591 20.701H54.9663C55.4548 20.701 55.9232 20.507 56.2686 20.1616C56.614 19.8162 56.8081 19.3477 56.8081 18.8593V15.4521H60.3626V45.4354C60.3554 45.9143 60.162 46.3716 59.8233 46.7103C59.4847 47.0489 59.0274 47.2424 58.5485 47.2495Z" fill="#9EA3B6"/>
<path d="M8.19573 9.39305C8.55999 9.39305 8.91607 9.28504 9.21894 9.08266C9.52181 8.88029 9.75787 8.59265 9.89726 8.25612C10.0367 7.91959 10.0731 7.54928 10.0021 7.19202C9.93101 6.83476 9.7556 6.5066 9.49803 6.24903C9.24046 5.99146 8.91229 5.81605 8.55503 5.74498C8.19777 5.67392 7.82746 5.71039 7.49093 5.84979C7.1544 5.98918 6.86676 6.22524 6.66439 6.52811C6.46202 6.83099 6.354 7.18706 6.354 7.55132C6.354 8.03978 6.54804 8.50823 6.89343 8.85362C7.23882 9.19901 7.70727 9.39305 8.19573 9.39305Z" fill="#FF6C6C"/>
<path d="M13.1127 9.39305C13.477 9.39305 13.8331 9.28504 14.1359 9.08266C14.4388 8.88029 14.6749 8.59265 14.8143 8.25612C14.9537 7.91959 14.9901 7.54928 14.9191 7.19202C14.848 6.83476 14.6726 6.5066 14.415 6.24903C14.1574 5.99146 13.8293 5.81605 13.472 5.74498C13.1148 5.67392 12.7445 5.71039 12.4079 5.84979C12.0714 5.98918 11.7838 6.22524 11.5814 6.52811C11.379 6.83099 11.271 7.18706 11.271 7.55132C11.271 8.03978 11.465 8.50823 11.8104 8.85362C12.1558 9.19901 12.6243 9.39305 13.1127 9.39305Z" fill="#FDDE6F"/>
<path d="M17.9116 9.57567C18.2758 9.57567 18.6319 9.46765 18.9348 9.26528C19.2376 9.06291 19.4737 8.77527 19.6131 8.43874C19.7525 8.10221 19.789 7.7319 19.7179 7.37464C19.6468 7.01738 19.4714 6.68921 19.2138 6.43164C18.9563 6.17407 18.6281 5.99866 18.2709 5.9276C17.9136 5.85654 17.5433 5.89301 17.2068 6.03241C16.8702 6.1718 16.5826 6.40786 16.3802 6.71073C16.1778 7.0136 16.0698 7.36968 16.0698 7.73394C16.0698 8.2224 16.2639 8.69085 16.6093 9.03624C16.9546 9.38163 17.4231 9.57567 17.9116 9.57567Z" fill="#27BF24"/>
<path d="M54.9195 22.1929H38.7123C38.2239 22.1929 37.7554 22.3869 37.41 22.7323C37.0646 23.0777 36.8706 23.5461 36.8706 24.0346V29.2559C36.8706 29.7443 37.0646 30.2128 37.41 30.5582C37.7554 30.9036 38.2239 31.0976 38.7123 31.0976H54.9195C55.408 31.0976 55.8764 30.9036 56.2218 30.5582C56.5672 30.2128 56.7613 29.7443 56.7613 29.2559V24.007C56.754 23.5233 56.5568 23.0619 56.2122 22.7225C55.8675 22.3831 55.4032 22.1928 54.9195 22.1929ZM53.0778 27.4142H40.5264V25.8211H53.0962L53.0778 27.4142Z" fill="#7EB1C1"/>
<path d="M54.9204 34.652H10.3967C10.1336 34.6101 9.86452 34.6256 9.60805 34.6977C9.35158 34.7698 9.11379 34.8967 8.91111 35.0696C8.70843 35.2425 8.54566 35.4573 8.43406 35.6992C8.32245 35.9411 8.26465 36.2043 8.26465 36.4708C8.26465 36.7372 8.32245 37.0004 8.43406 37.2423C8.54566 37.4842 8.70843 37.699 8.91111 37.8719C9.11379 38.0448 9.35158 38.1717 9.60805 38.2438C9.86452 38.3159 10.1336 38.3315 10.3967 38.2895H54.9204C55.3531 38.2204 55.7469 37.9994 56.0313 37.666C56.3156 37.3327 56.4718 36.9089 56.4718 36.4708C56.4718 36.0326 56.3156 35.6088 56.0313 35.2755C55.7469 34.9422 55.3531 34.7211 54.9204 34.652Z" fill="#A78CC9"/>
<path d="M54.9206 40.3615H10.3969C9.90845 40.3615 9.43999 40.5555 9.0946 40.9009C8.74921 41.2463 8.55518 41.7147 8.55518 42.2032C8.55518 42.6916 8.74921 43.1601 9.0946 43.5055C9.43999 43.8509 9.90845 44.0449 10.3969 44.0449H54.9206C55.4091 44.0449 55.8775 43.8509 56.2229 43.5055C56.5683 43.1601 56.7624 42.6916 56.7624 42.2032C56.7624 41.7147 56.5683 41.2463 56.2229 40.9009C55.8775 40.5555 55.4091 40.3615 54.9206 40.3615Z" fill="#A78CC9"/>
</svg>
