<svg width="64" height="64" viewBox="0 0 64 64" fill="none" xmlns="http://www.w3.org/2000/svg">
<path d="M22.4451 27.7633L17.4022 33.1315L22.4075 38.4996C22.6572 38.7638 22.8248 39.0948 22.89 39.4524C22.9551 39.8101 22.915 40.1789 22.7745 40.5142C22.6341 40.8494 22.3993 41.1367 22.0987 41.3411C21.798 41.5455 21.4446 41.6582 21.0811 41.6655C20.8245 41.666 20.5705 41.6129 20.3356 41.5095C20.1007 41.406 19.89 41.2546 19.7172 41.0648L13.4606 34.3828C13.1286 34.0358 12.9434 33.5741 12.9434 33.0939C12.9434 32.6137 13.1286 32.152 13.4606 31.8051L19.7172 25.1605C19.88 24.9608 20.0822 24.7967 20.3111 24.6785C20.5401 24.5603 20.791 24.4905 21.0481 24.4735C21.3052 24.4564 21.5631 24.4925 21.8056 24.5795C22.0482 24.6665 22.2703 24.8024 22.458 24.979C22.6457 25.1555 22.7951 25.3688 22.8968 25.6056C22.9985 25.8423 23.0503 26.0975 23.0491 26.3552C23.0479 26.6128 22.9936 26.8675 22.8897 27.1033C22.7858 27.3391 22.6344 27.551 22.4451 27.7257V27.7633ZM46.2202 31.8426L39.9636 25.1981C39.8008 24.9983 39.5986 24.8342 39.3696 24.716C39.1406 24.5978 38.8898 24.528 38.6327 24.511C38.3755 24.494 38.1177 24.5301 37.8751 24.617C37.6325 24.704 37.4105 24.84 37.2228 25.0165C37.035 25.193 36.8857 25.4063 36.784 25.6431C36.6823 25.8799 36.6304 26.135 36.6316 26.3927C36.6328 26.6504 36.6871 26.9051 36.791 27.1409C36.8949 27.3767 37.0463 27.5885 37.2357 27.7633L42.241 33.1315L37.2357 38.4996C36.9839 38.7662 36.8157 39.1006 36.7519 39.4616C36.688 39.8226 36.7313 40.1944 36.8764 40.5312C37.0215 40.8679 37.2619 41.1547 37.5682 41.3563C37.8744 41.5579 38.233 41.6654 38.5996 41.6655C38.8563 41.666 39.1102 41.6129 39.3451 41.5095C39.58 41.406 39.7907 41.2546 39.9636 41.0648L46.2202 34.4203C46.5412 34.0753 46.7197 33.6215 46.7197 33.1502C46.7197 32.6789 46.5412 32.2251 46.2202 31.8801V31.8426ZM33.2314 23.9342C32.7652 23.76 32.2488 23.7782 31.7959 23.9847C31.343 24.1912 30.9907 24.5691 30.8164 25.0354L25.3356 39.9261C25.2499 40.1569 25.2107 40.4024 25.2204 40.6484C25.23 40.8944 25.2883 41.1361 25.3918 41.3595C25.4954 41.5828 25.6421 41.7835 25.8236 41.9498C26.0051 42.1162 26.2178 42.2449 26.4493 42.3287C26.656 42.4123 26.877 42.4548 27.1 42.4538C27.4864 42.4491 27.8622 42.3269 28.1774 42.1034C28.4925 41.8798 28.7322 41.5656 28.8643 41.2025L34.3451 26.3118C34.5105 25.8487 34.4863 25.339 34.2777 24.8937C34.0691 24.4485 33.6931 24.1036 33.2314 23.9342Z" fill="#FF6AB9"/>
<path fill-rule="evenodd" clip-rule="evenodd" d="M9.13899 11.3922C3.50547 16.8171 0 24.4128 0 32.8337C0 41.7651 3.95058 49.7975 10.1935 55.2637L7.27164 58.4931L18.6954 59.7234L16.2568 48.5193L13.0714 52.0563C7.7119 47.3896 4.32784 40.5184 4.32784 32.8337C4.32784 24.7525 8.05944 17.5727 13.9062 12.9081L10.545 11.8316L9.13899 11.3922Z" fill="#9EA3B6"/>
<path fill-rule="evenodd" clip-rule="evenodd" d="M19.7317 0L12.9434 9.2708L23.8838 12.7638L22.4119 8.2163C25.008 7.32821 27.7929 6.83227 30.6941 6.83227C43.5035 6.83227 54.0654 16.2456 55.8922 28.5374L59.6049 25.1542C56.3856 12.1744 44.6559 2.5264 30.6941 2.5264C27.3277 2.5264 24.0924 3.09686 21.0718 4.13012L19.7317 0Z" fill="#A78CC9"/>
<path fill-rule="evenodd" clip-rule="evenodd" d="M59.3647 30.0283L50.8628 37.7393L55.5422 38.7499C53.266 50.4969 42.9656 59.3346 30.5418 59.3346C27.2538 59.3346 24.1097 58.7272 21.2271 57.5991L22.2815 62.4981C24.902 63.2538 27.6812 63.6624 30.5418 63.6624C44.9946 63.6624 57.0572 53.3217 59.7602 39.6506L64.0001 40.5513L59.3647 30.0283Z" fill="#7EB1C1"/>
</svg>
