<svg width="80" height="80" viewBox="0 0 80 80" fill="none" xmlns="http://www.w3.org/2000/svg">
<path d="M29.75 0C29 0 28.5 0.5 28.5 1.25V28.5H1.25C0.5 28.5 0 29 0 29.75C0 30.5 0.5 31 1.25 31H29.75C30.5 31 31 30.5 31 29.75V1.25C31 0.5 30.375 0 29.75 0Z" fill="#9EA3B6"/>
<path d="M29.75 49.0002H1.25C0.5 49.0002 0 49.5002 0 50.2502C0 51.0002 0.5 51.5002 1.25 51.5002H28.5V78.7503C28.5 79.5003 29 80.0003 29.75 80.0003C30.5 80.0003 31 79.5003 31 78.7503V50.2502C31 49.6252 30.375 49.0002 29.75 49.0002Z" fill="#9EA3B6"/>
<path d="M78.75 49.0002H50.25C49.5 49.0002 49 49.5002 49 50.2502V78.7503C49 79.5003 49.5 80.0003 50.25 80.0003C51 80.0003 51.5 79.5003 51.5 78.7503V51.5002H78.75C79.5 51.5002 80 51.0002 80 50.2502C80 49.5002 79.5 49.0002 78.75 49.0002Z" fill="#9EA3B6"/>
<path d="M50.25 31H78.75C79.5 31 80 30.5 80 29.75C80 29 79.5 28.5 78.75 28.5H51.5V1.25C51.5 0.5 51 0 50.25 0C49.5 0 49 0.5 49 1.25V29.75C49 30.375 49.625 31 50.25 31Z" fill="#9EA3B6"/>
<path d="M59.75 20.4998V10.4998C59.375 10.6248 58.875 10.6248 58.5 10.6248C58.125 10.6248 57.625 10.6248 57.25 10.4998V21.8748C57.25 22.4998 57.875 23.1248 58.5 23.1248H69.375C69.25 22.7498 69.25 22.2498 69.25 21.8748C69.25 21.4998 69.25 20.9998 69.375 20.6248H59.75V20.4998Z" fill="#9EA3B6"/>
<path d="M21.5 22.9998C22.25 22.9998 22.75 22.3748 22.75 21.7498V10.4998C22.375 10.6248 21.875 10.6248 21.5 10.6248C21.125 10.6248 20.625 10.6248 20.25 10.4998V20.6248H10.5C10.625 20.9998 10.625 21.4998 10.625 21.8748C10.625 22.2498 10.625 22.7498 10.5 23.1248H21.5V22.9998Z" fill="#9EA3B6"/>
<path d="M20.25 59.5002V69.6253C20.625 69.5003 21.125 69.5003 21.5 69.5003C21.875 69.5003 22.375 69.5003 22.75 69.6253V58.2502C22.75 57.8752 22.625 57.6252 22.375 57.3752C22.125 57.1252 21.875 57.0002 21.5 57.0002H10.5C10.625 57.3752 10.625 57.8752 10.625 58.2502C10.625 58.6252 10.625 59.1252 10.5 59.5002H20.25Z" fill="#9EA3B6"/>
<path d="M58.5 57.0002C57.875 57.0002 57.25 57.6252 57.25 58.2502V69.6253C57.625 69.5003 58.125 69.5003 58.5 69.5003C58.875 69.5003 59.375 69.5003 59.75 69.6253V59.5002H69.375C69.25 59.1252 69.25 58.6252 69.25 58.2502C69.25 57.8752 69.25 57.3752 69.375 57.0002H58.5Z" fill="#9EA3B6"/>
<path d="M4.125 54.1248C1.875 54.1248 0.125 55.8748 0.125 58.1248C0.125 60.3748 2 62.1248 4.125 62.1248C6.375 62.1248 8.12501 60.3748 8.12501 58.1248C8.12501 55.9998 6.375 54.1248 4.125 54.1248Z" fill="#FF8E8E"/>
<path d="M58.5 71.8751C56.25 71.8751 54.5 73.6251 54.5 75.8751C54.5 78.1251 56.375 79.8751 58.5 79.8751C60.625 79.8751 62.5 78.0001 62.5 75.8751C62.625 73.7501 60.75 71.8751 58.5 71.8751Z" fill="#FF8E8E"/>
<path d="M58.5 8.12525C60.75 8.12525 62.5 6.25025 62.5 4.12525C62.5 1.87525 60.625 0.125244 58.5 0.125244C56.375 0.125244 54.5 1.87525 54.5 4.12525C54.5 6.25025 56.375 8.12525 58.5 8.12525Z" fill="#FF8E8E"/>
<path d="M21.5 71.8751C19.25 71.8751 17.5 73.6251 17.5 75.8751C17.5 78.1251 19.375 79.8751 21.5 79.8751C23.75 79.8751 25.5 78.0001 25.5 75.8751C25.5 73.7501 23.625 71.8751 21.5 71.8751Z" fill="#FF8E8E"/>
<path d="M21.5001 8.12525C23.7501 8.12525 25.5001 6.25025 25.5001 4.12525C25.5001 1.87525 23.6251 0.125244 21.5001 0.125244C19.2501 0.125244 17.5001 1.87525 17.5001 4.12525C17.3751 6.25025 19.2501 8.12525 21.5001 8.12525Z" fill="#FF8E8E"/>
<path d="M4.125 25.8748C6.375 25.8748 8.12501 23.9998 8.12501 21.8748C8.12501 19.6248 6.375 17.8748 4.125 17.8748C1.875 17.8748 0.125 19.6248 0.125 21.8748C0.125 23.9998 1.875 25.8748 4.125 25.8748Z" fill="#FF8E8E"/>
<path d="M75.875 54.1248C73.625 54.1248 71.875 55.8748 71.875 58.1248C71.875 60.3748 73.75 62.1248 75.875 62.1248C78 62.1248 79.875 60.3748 79.875 58.1248C79.875 55.9998 78.125 54.1248 75.875 54.1248Z" fill="#FF8E8E"/>
<path d="M75.8751 25.8748C78.1251 25.8748 79.8751 23.9998 79.8751 21.8748C79.8751 19.6248 78.0001 17.8748 75.8751 17.8748C73.7501 17.8748 71.8751 19.6248 71.8751 21.8748C71.7501 23.9998 73.6251 25.8748 75.8751 25.8748Z" fill="#FF8E8E"/>
<path d="M40 17.25C40.75 17.25 41.25 16.75 41.25 16V1.25C41.25 0.5 40.75 0 40 0C39.25 0 38.75 0.5 38.75 1.25V16C38.75 16.625 39.25 17.25 40 17.25Z" fill="#F2BD6D"/>
<path d="M40 23.875C40.75 23.875 41.25 23.375 41.25 22.625V20.625C41.25 19.875 40.75 19.375 40 19.375C39.25 19.375 38.75 19.875 38.75 20.625V22.625C38.75 23.25 39.25 23.875 40 23.875Z" fill="#335A95"/>
<path d="M40 31.0002C40.75 31.0002 41.25 30.5002 41.25 29.7502V27.7502C41.25 27.0002 40.75 26.5002 40 26.5002C39.25 26.5002 38.75 27.0002 38.75 27.7502V29.7502C38.75 30.3752 39.25 31.0002 40 31.0002Z" fill="#335A95"/>
<path d="M40 62.7502C39.25 62.7502 38.75 63.2502 38.75 64.0002V78.7503C38.75 79.5003 39.25 80.0003 40 80.0003C40.75 80.0003 41.25 79.5003 41.25 78.7503V64.0002C41.25 63.3752 40.75 62.7502 40 62.7502Z" fill="#F2BD6D"/>
<path d="M40 56.1249C39.25 56.1249 38.75 56.6249 38.75 57.3749V59.3749C38.75 60.1249 39.25 60.6249 40 60.6249C40.75 60.6249 41.25 60.1249 41.25 59.3749V57.3749C41.25 56.7499 40.75 56.1249 40 56.1249Z" fill="#335A95"/>
<path d="M40 49.0002C39.25 49.0002 38.75 49.5002 38.75 50.2502V52.2502C38.75 53.0002 39.25 53.5002 40 53.5002C40.75 53.5002 41.25 53.0002 41.25 52.2502V50.2502C41.25 49.6252 40.75 49.0002 40 49.0002Z" fill="#335A95"/>
<path d="M78.75 38.75H64C63.25 38.75 62.75 39.25 62.75 40C62.75 40.75 63.25 41.25 64 41.25H78.75C79.5 41.25 80 40.75 80 40C80 39.25 79.5 38.75 78.75 38.75Z" fill="#F2BD6D"/>
<path d="M57.375 38.75C56.625 38.75 56.125 39.25 56.125 40C56.125 40.75 56.625 41.25 57.375 41.25H59.375C60.125 41.25 60.625 40.75 60.625 40C60.625 39.25 60.125 38.75 59.375 38.75H57.375Z" fill="#335A95"/>
<path d="M50.25 41.25H52.25C53 41.25 53.5 40.75 53.5 40C53.5 39.25 53 38.75 52.25 38.75H50.25C49.5 38.75 49 39.25 49 40C49 40.75 49.625 41.25 50.25 41.25Z" fill="#335A95"/>
<path d="M1.25 41.25H16C16.75 41.25 17.25 40.75 17.25 40C17.25 39.25 16.75 38.75 16 38.75H1.25C0.5 38.75 0 39.25 0 40C0 40.75 0.5 41.25 1.25 41.25Z" fill="#F2BD6D"/>
<path d="M22.625 41.25C23.375 41.25 23.875 40.75 23.875 40C23.875 39.25 23.375 38.75 22.625 38.75H20.625C19.875 38.75 19.375 39.25 19.375 40C19.375 40.75 19.875 41.25 20.625 41.25H22.625Z" fill="#335A95"/>
<path d="M29.75 38.75H27.75C27 38.75 26.5 39.25 26.5 40C26.5 40.75 27 41.25 27.75 41.25H29.75C30.5 41.25 31 40.75 31 40C31 39.25 30.375 38.75 29.75 38.75Z" fill="#335A95"/>
<path d="M45.375 33.3752H34.75C34.125 33.3752 33.5 33.8752 33.5 34.6252V45.2503C33.5 45.8753 34.125 46.5003 34.75 46.5003H45.375C46 46.5003 46.625 45.8753 46.625 45.2503V34.6252C46.625 34.0002 46 33.3752 45.375 33.3752Z" fill="#A78CC9"/>
</svg>
