<svg width="64" height="55" viewBox="0 0 64 55" fill="none" xmlns="http://www.w3.org/2000/svg">
<path d="M5.7329 0H58.2671C63.2187 0 64 0.780801 64 5.72904C64 19.9725 64 34.2168 64 48.4603C64 52.3422 62.1524 54.1894 58.2671 54.1894H21.8606H5.7329C2.58543 54.1894 0 51.6057 0 48.4603V14.6074V5.72904C0 0.68508 0.685542 0 5.7329 0ZM43.2762 10.8157C40.6734 10.8157 40.6734 6.86029 43.2762 6.86029H54.2378C56.8406 6.86029 56.8406 10.8157 54.2378 10.8157H43.2762ZM17.0436 18.0929H3.95809V48.4603C3.95809 49.442 4.7505 50.2339 5.7329 50.2339H17.0436C16.9818 49.9254 16.9493 49.6066 16.9493 49.2815V19.0454C16.9493 18.7202 16.9818 18.4014 17.0436 18.0929ZM3.95809 14.1375C22.653 14.1375 41.347 14.1375 60.0419 14.1375V5.72904C60.0419 4.7568 59.263 3.96808 58.2901 3.95543H5.7329C4.76 3.95543 3.97076 4.73386 3.95809 5.7061V14.1375ZM21.8606 18.0929C21.3381 18.0929 20.9074 18.5233 20.9074 19.0454V49.2815C20.9074 49.8115 21.3302 50.2339 21.8606 50.2339H58.2901C59.2542 50.2213 60.0292 49.4468 60.0419 48.4833V19.0209C60.0277 18.5201 59.6144 18.1072 59.1133 18.0929C46.696 18.0929 34.2779 18.0929 21.8606 18.0929Z" fill="#9EA3B6"/>
<rect x="6.32227" y="22.5789" width="8.1284" height="3.16105" rx="1.58052" fill="#7EB1C1"/>
<rect x="27.0947" y="6.77368" width="10.3863" height="4.0642" rx="2.0321" fill="#FF8E8E"/>
<rect x="6.32227" y="6.77368" width="17.16" height="4.0642" rx="2.0321" fill="#A78CC9"/>
<rect x="6.32227" y="28.4495" width="8.1284" height="3.16105" rx="1.58052" fill="#7EB1C1"/>
<rect x="6.32227" y="34.3198" width="8.1284" height="3.16105" rx="1.58052" fill="#7EB1C1"/>
<rect x="6.32227" y="40.1904" width="8.1284" height="3.16105" rx="1.58052" fill="#7EB1C1"/>
<path d="M33.1241 29.1833L28.7256 33.8656L33.0913 38.5478C33.3091 38.7783 33.4553 39.067 33.5121 39.3789C33.569 39.6908 33.534 40.0126 33.4115 40.305C33.2889 40.5974 33.0841 40.848 32.8219 41.0262C32.5597 41.2045 32.2514 41.3028 31.9344 41.3092C31.7105 41.3097 31.489 41.2633 31.2841 41.1731C31.0793 41.0829 30.8955 40.9508 30.7447 40.7853L25.2876 34.957C24.998 34.6544 24.8364 34.2517 24.8364 33.8328C24.8364 33.414 24.998 33.0113 25.2876 32.7087L30.7447 26.9131C30.8867 26.7389 31.0631 26.5958 31.2628 26.4927C31.4625 26.3896 31.6813 26.3287 31.9056 26.3138C32.1299 26.299 32.3548 26.3305 32.5663 26.4063C32.7779 26.4822 32.9716 26.6008 33.1353 26.7548C33.2991 26.9087 33.4294 27.0948 33.5181 27.3013C33.6068 27.5078 33.652 27.7304 33.6509 27.9551C33.6499 28.1799 33.6026 28.402 33.5119 28.6077C33.4213 28.8133 33.2893 28.9981 33.1241 29.1506V29.1833ZM53.8614 32.7414L48.4042 26.9459C48.2622 26.7716 48.0859 26.6285 47.8861 26.5254C47.6864 26.4223 47.4676 26.3614 47.2433 26.3466C47.0191 26.3317 46.7942 26.3632 46.5826 26.4391C46.371 26.5149 46.1773 26.6335 46.0136 26.7875C45.8499 26.9415 45.7196 27.1275 45.6309 27.334C45.5422 27.5405 45.4969 27.7631 45.498 27.9879C45.4991 28.2126 45.5464 28.4347 45.637 28.6404C45.7277 28.8461 45.8597 29.0309 46.0249 29.1833L50.3906 33.8656L46.0249 38.5478C45.8053 38.7803 45.6586 39.072 45.6029 39.3869C45.5472 39.7018 45.5849 40.0261 45.7115 40.3198C45.838 40.6135 46.0478 40.8637 46.3149 41.0395C46.582 41.2153 46.8947 41.3091 47.2145 41.3092C47.4384 41.3097 47.6599 41.2633 47.8648 41.1731C48.0697 41.0829 48.2534 40.9508 48.4042 40.7853L53.8614 34.9898C54.1414 34.6888 54.2971 34.293 54.2971 33.8819C54.2971 33.4709 54.1414 33.0751 53.8614 32.7741V32.7414ZM42.5323 25.8435C42.1256 25.6916 41.6752 25.7074 41.2801 25.8875C40.8851 26.0676 40.5778 26.3973 40.4258 26.804L35.6453 39.7921C35.5705 39.9934 35.5364 40.2075 35.5448 40.4221C35.5532 40.6367 35.604 40.8474 35.6943 41.0423C35.7846 41.2371 35.9126 41.4121 36.071 41.5572C36.2293 41.7023 36.4147 41.8146 36.6167 41.8876C36.797 41.9606 36.9897 41.9977 37.1842 41.9968C37.5212 41.9927 37.849 41.8861 38.1239 41.6911C38.3989 41.4961 38.6079 41.2221 38.7231 40.9053L43.5036 27.9172C43.6479 27.5133 43.6268 27.0688 43.4448 26.6804C43.2629 26.292 42.9349 25.9912 42.5323 25.8435Z" fill="#F2BD6D"/>
</svg>
