<svg width="65" height="64" viewBox="0 0 65 64" fill="none" xmlns="http://www.w3.org/2000/svg">
<path d="M32.5 20V32" stroke="#FF6AB9" stroke-width="4" stroke-linecap="round" stroke-linejoin="round"/>
<path d="M42.8923 38L32.5 32" stroke="#FF6AB9" stroke-width="4" stroke-linecap="round" stroke-linejoin="round"/>
<path d="M46.541 24.929H56.541V14.929" stroke="#FF6AB9" stroke-width="4" stroke-linecap="round" stroke-linejoin="round"/>
<path d="M48.0564 47.5564C44.9796 50.6331 41.0596 52.7284 36.792 53.5773C32.5244 54.4262 28.1009 53.9905 24.081 52.3254C20.061 50.6602 16.6251 47.8404 14.2077 44.2226C11.7903 40.6047 10.5 36.3512 10.5 32C10.5 27.6488 11.7903 23.3953 14.2077 19.7775C16.6251 16.1596 20.061 13.3398 24.081 11.6747C28.1009 10.0095 32.5244 9.57386 36.792 10.4227C41.0596 11.2716 44.9796 13.3669 48.0564 16.4437L56.5416 24.9289" stroke="#FF6AB9" stroke-width="4" stroke-linecap="round" stroke-linejoin="round"/>
</svg>
