<svg width="91" height="90" viewBox="0 0 91 90" fill="none" xmlns="http://www.w3.org/2000/svg">
<path fill-rule="evenodd" clip-rule="evenodd" d="M88.7596 15.966L83.7409 14.7821L70.1776 28.2681L62.4952 20.4442L75.7239 6.56563L74.5658 1.46976C71.7703 0.534555 68.8464 0.0396468 65.8989 0.00276886C62.6835 -0.0466764 59.4923 0.566585 56.5243 1.80434C53.6585 3.10154 51.0681 4.93624 48.8934 7.20905C46.4725 9.50227 44.5552 12.2741 43.2634 15.3483C40.7763 21.4665 40.7763 28.3139 43.2634 34.4321C29.8497 47.6285 16.6092 60.9999 3.54524 74.5428C2.19406 76.3122 1.55064 78.5191 1.71793 80.7389C1.84978 83.1264 2.92348 85.364 4.70339 86.9607C5.50123 87.8294 6.45349 88.55 7.51513 89.0712C8.60894 89.5537 9.78639 89.8304 10.9767 89.8883C13.0099 89.8497 14.9595 89.0776 16.4715 87.72C26.4316 78.3454 45.5154 59.0879 56.357 47.8023C59.2974 49.0505 62.4566 49.694 65.648 49.6875C68.8604 49.685 72.0398 49.0386 74.9982 47.7865C77.9566 46.5344 80.634 44.702 82.8723 42.3976C87.4698 37.7087 90.0376 31.399 90.0207 24.8323C90.095 21.8274 89.6688 18.831 88.7596 15.966ZM12.5788 83.1581C12.3312 83.3781 12.0327 83.5329 11.7102 83.6085C11.393 83.6634 11.0687 83.6634 10.7515 83.6085C10.4189 83.5579 10.1022 83.4325 9.825 83.2418C9.52758 83.0677 9.27609 82.825 9.0915 82.534C8.19072 81.6139 7.34784 79.8638 8.19071 78.8794C17.0055 69.5048 35.1564 51.1803 46.5063 39.9783C47.1497 40.8277 47.8575 41.6384 48.6167 42.3976C49.3759 43.189 50.1931 43.9225 51.0617 44.5917C40.085 55.8515 22.1851 73.9573 12.5853 83.1581H12.5788ZM84.1141 24.8323C84.1269 29.7544 82.2096 34.4836 78.7608 38.0095C75.3194 41.3855 70.6908 43.2766 65.8699 43.2766C61.0491 43.2766 56.4205 41.3855 52.9791 38.0095C50.4568 35.3772 48.7337 32.0829 48.0104 28.5097C47.2872 24.9365 47.5933 21.2314 48.8934 17.8255C49.7587 15.5074 51.1009 13.3968 52.8333 11.6302C54.5656 9.8635 56.6494 8.48007 58.95 7.56937C61.1343 6.65512 63.4795 6.18697 65.8474 6.19245H67.4817L55.7908 18.2437V22.7219L67.9836 34.8567H72.2301L84.1141 23.1723V24.8323ZM14.5541 36.5747H24.4049L28.941 41.188L33.3033 36.8513L29.0246 32.489V32.2123L29.3913 21.6023L27.9758 18.7906L9.57407 6.68145L5.77146 7.10611L0.424656 12.5687L0 16.4228L11.826 35.1977L14.5541 36.5811V36.5747ZM8.47382 13.2057L23.3625 23.0114L23.1116 30.237H16.1884L6.5886 15.0395L8.47382 13.2057ZM54.1887 57.9876L58.5253 53.6574L78.5099 74.1503C80.1932 75.9194 81.132 78.2679 81.132 80.7099C81.132 83.1519 80.1932 85.5005 78.5099 87.2696C77.2442 88.569 75.6166 89.4573 73.839 89.8188C72.0613 90.1803 70.2161 89.9982 68.5434 89.2963C67.4758 88.8228 66.5183 88.1327 65.7316 87.2696L45.5154 66.6609L49.8842 62.2985L70.0361 82.8493C70.3071 83.1482 70.6442 83.3795 71.0205 83.5249C71.7611 83.8257 72.5898 83.8257 73.3304 83.5249C73.7066 83.3793 74.0437 83.148 74.3148 82.8493C74.5964 82.5703 74.8157 82.2348 74.9582 81.8649C75.1059 81.4873 75.1843 81.0863 75.1899 80.681C75.1834 80.2763 75.1072 79.8758 74.9647 79.4971C74.8222 79.1272 74.6029 78.7917 74.3213 78.5127L54.1887 57.9876Z" fill="#FF6AB9"/>
</svg>
