<svg width="90" height="90" viewBox="0 0 90 90" fill="none" xmlns="http://www.w3.org/2000/svg">
<path d="M45 0C20.1 0 0 20.1 0 45C0 69.9 20.1 90 45 90C69.9 90 90 69.9 90 45C90 20.1 69.9 0 45 0ZM45 84C23.5 84 6 66.5 6 45C6 23.5 23.5 6 45 6C66.5 6 84 23.5 84 45C84 66.5 66.5 84 45 84ZM30 45C30 48.9 27.3 52 24 52C20.7 52 18 48.9 18 45C18 41.1 20.7 38 24 38C27.3 38 30 41.1 30 45ZM72 45C72 48.9 69.3 52 66 52C62.7 52 60 48.9 60 45C60 41.1 62.7 38 66 38C69.3 38 72 41.1 72 45ZM63 62.6C63.8 63.3 63.9 64.6 63.2 65.4C62.5 66.2 61.2 66.3 60.4 65.6C59.1 64.5 56.9 64.1 54.7 64.5C52.5 65 50.6 66.2 49.9 67.8C49.8 68 49.6 68.2 49.5 68.4C48.1 70.8 45.4 72.6 42.2 73.3C41.3 73.5 40.5 73.6 39.6 73.6C37.1 73.6 34.8 72.8 33.1 71.4C32.3 70.7 32.2 69.4 32.9 68.6C33.6 67.8 34.9 67.7 35.7 68.4C37 69.5 39.2 69.9 41.4 69.5C43.6 69 45.5 67.8 46.2 66.2C46.3 66 46.5 65.8 46.6 65.6C48 63.2 50.7 61.4 53.9 60.7C57.3 60 60.7 60.7 63 62.6Z" fill="#FF6AB9"/>
</svg>
