<svg width="65" height="64" viewBox="0 0 65 64" fill="none" xmlns="http://www.w3.org/2000/svg">
<path d="M23.7916 30.7082C22.2498 26.8626 22.0831 22.6026 23.3197 18.6484C24.5562 14.6941 27.1202 11.288 30.5781 9.0059C34.0361 6.72379 38.1759 5.70561 42.2979 6.12347C46.4199 6.54132 50.2712 8.36958 53.2008 11.2992C56.1305 14.2288 57.9587 18.0801 58.3765 22.2021C58.7944 26.3241 57.7762 30.464 55.4941 33.9219C53.212 37.3799 49.8059 39.9438 45.8516 41.1803C41.8973 42.4169 37.6374 42.2502 33.7918 40.7084L33.7919 40.7081L30.5 44H24.5V50H18.5V56H8.5V46L23.792 30.708L23.7916 30.7082Z" stroke="#FF6AB9" stroke-width="4" stroke-linecap="round" stroke-linejoin="round"/>
<path d="M45.5 22C47.1569 22 48.5 20.6569 48.5 19C48.5 17.3431 47.1569 16 45.5 16C43.8431 16 42.5 17.3431 42.5 19C42.5 20.6569 43.8431 22 45.5 22Z" fill="#FF6AB9"/>
</svg>
