<svg width="24" height="24" viewBox="0 0 24 24" fill="none" xmlns="http://www.w3.org/2000/svg">
<path d="M12 9.75V12H5.25C4.65326 12 4.08096 11.7629 3.65901 11.341C3.23705 10.919 3 10.3467 3 9.75C3 9.15326 3.23705 8.58097 3.65901 8.15901C4.08096 7.73705 4.65326 7.5 5.25 7.5H9.75C10.3467 7.5 10.919 7.73705 11.341 8.15901C11.7629 8.58097 12 9.15326 12 9.75H12Z" stroke="white" stroke-linecap="round" stroke-linejoin="round"/>
<path d="M12 7.5H9.75C9.15326 7.5 8.58097 7.26295 8.15901 6.84099C7.73705 6.41903 7.5 5.84674 7.5 5.25C7.5 4.65326 7.73705 4.08097 8.15901 3.65901C8.58097 3.23705 9.15326 3 9.75 3V3C10.3467 3 10.919 3.23705 11.341 3.65901C11.7629 4.08097 12 4.65326 12 5.25V7.5Z" stroke="white" stroke-linecap="round" stroke-linejoin="round"/>
<path d="M14.25 12H12V5.24999C12 4.65326 12.2371 4.08096 12.659 3.659C13.081 3.23705 13.6533 2.99999 14.25 2.99999C14.8467 2.99999 15.419 3.23705 15.841 3.659C16.2629 4.08096 16.5 4.65326 16.5 5.24999V9.75C16.5 10.3467 16.2629 10.919 15.841 11.341C15.419 11.7629 14.8467 12 14.25 12V12Z" stroke="white" stroke-linecap="round" stroke-linejoin="round"/>
<path d="M16.5 12V9.75C16.5 9.15326 16.7371 8.58097 17.159 8.15901C17.581 7.73705 18.1533 7.5 18.75 7.5V7.5C19.3467 7.5 19.919 7.73705 20.341 8.15901C20.7629 8.58097 21 9.15326 21 9.75V9.75C21 10.3467 20.7629 10.919 20.341 11.341C19.919 11.7629 19.3467 12 18.75 12H16.5Z" stroke="white" stroke-linecap="round" stroke-linejoin="round"/>
<path d="M12 14.25V12H18.75C19.3467 12 19.919 12.2371 20.341 12.659C20.763 13.081 21 13.6533 21 14.25V14.25C21 14.8467 20.763 15.419 20.341 15.841C19.919 16.2629 19.3467 16.5 18.75 16.5H14.25C13.6533 16.5 13.081 16.2629 12.659 15.841C12.2371 15.419 12 14.8467 12 14.25H12Z" stroke="white" stroke-linecap="round" stroke-linejoin="round"/>
<path d="M12 16.5H14.25C14.8467 16.5 15.419 16.7371 15.841 17.159C16.2629 17.581 16.5 18.1533 16.5 18.75V18.75C16.5 19.3467 16.2629 19.919 15.841 20.341C15.419 20.7629 14.8467 21 14.25 21V21C13.6533 21 13.081 20.7629 12.659 20.341C12.2371 19.919 12 19.3467 12 18.75V16.5Z" stroke="white" stroke-linecap="round" stroke-linejoin="round"/>
<path d="M9.75 12H12V18.75C12 19.3467 11.7629 19.919 11.341 20.341C10.919 20.7629 10.3467 21 9.75 21V21C9.15326 21 8.58097 20.7629 8.15901 20.341C7.73705 19.919 7.5 19.3467 7.5 18.75V14.25C7.5 13.6533 7.73705 13.081 8.15901 12.659C8.58097 12.2371 9.15326 12 9.75 12V12Z" stroke="white" stroke-linecap="round" stroke-linejoin="round"/>
<path d="M7.5 12V14.25C7.5 14.8467 7.26295 15.419 6.84099 15.841C6.41903 16.2629 5.84674 16.5 5.25 16.5C4.65326 16.5 4.08097 16.2629 3.65901 15.841C3.23705 15.419 3 14.8467 3 14.25V14.25C3 13.6533 3.23705 13.081 3.65901 12.659C4.08097 12.2371 4.65326 12 5.25 12H7.5Z" stroke="white" stroke-linecap="round" stroke-linejoin="round"/>
</svg>
