<?xml version="1.0" encoding="UTF-8"?>
<svg version="1.1" viewBox="0 0 1874.5 333.14" xmlns="http://www.w3.org/2000/svg"><defs><style>.a{fill:#88171a;}.b{fill:#231f20;}</style></defs><title>wireguard</title><path class="a" transform="translate(-1.5394)" d="m404.23 252.47-65.215-199.99h24.456l49.636 154.34 50.904-154.34h22.282l50.723 153.98 49.817-153.98h23.731l-65.034 199.99h-18.115l-52.715-161.04-52.172 161.04h-18.296z"/><path class="a" transform="translate(-1.5394)" d="m606.1 252.47v-155.07h24.637v155.07h-24.637z"/><path class="a" transform="translate(-1.5394)" d="m687.85 184.9v67.57h-24.274v-154.34h106.52q23.73 0 37.136 11.413 13.404 11.413 13.405 31.702a41.774 41.774 0 0 1-10.598 28.531q-10.597 12.05-27.625 14.764l42.933 67.932h-26.267l-43.839-67.57h-67.389zm0-22.644h82.243q12.5 0 19.112-5.4346 6.6101-5.4346 6.6118-15.579 0-10.143-6.6118-15.488-6.6152-5.3416-19.112-5.3442h-82.243v41.846z"/><path class="a" transform="translate(-1.5394)" d="m843.52 252.47v-154.7h145.1v22.644h-120.83v38.585h79.345v22.282h-79.345v48.911h127.53v22.282h-151.81z"/><path class="a" transform="translate(-1.5394)" d="m1166 198.31v-29.347h-54.527v-23.006h79.345v60.143q-14.495 24.999-37.77 38.313-23.28 13.315-52.806 13.315-44.929 0-74.182-29.619-29.257-29.618-29.256-75.087 0-45.65 29.347-75.269 29.347-29.618 74.091-29.618 27.716 0 50.542 12.137a98.119 98.119 0 0 1 37.136 34.6l-20.833 14.854a68.382 68.382 0 0 0-27.173-28.079 78.549 78.549 0 0 0-39.672-10.145q-33.694 0-55.795 23.097-22.104 23.096-22.101 58.421 0 35.325 22.101 58.331 22.099 23.008 55.795 23.006 21.012 0 37.408-9.0576 16.393-9.0565 28.351-26.992z"/><path class="a" transform="translate(-1.5394)" d="m1217.9 98.133h24.274v99.09q0 22.282 10.507 30.071 10.504 7.7908 41.665 7.7896 31.338 0 41.846-7.7896 10.504-7.7864 10.507-30.071v-99.09h24.093v105.43q0 28.442-18.025 41.122-18.027 12.677-58.784 12.681-40.581 0-58.331-12.5-17.756-12.5-17.753-41.303v-105.43z"/><path class="a" transform="translate(-1.5394)" d="m1367 252.47 78.62-154.7h15.217l79.345 154.7h-25.905l-20.108-39.31h-81.7l-19.927 39.31h-25.542zm55.976-59.78h60.505l-30.071-59.237z"/><path class="a" transform="translate(-1.5394)" d="m1567.1 184.9v67.57h-24.274v-154.34h106.52q23.73 0 37.136 11.413 13.404 11.413 13.405 31.702a41.774 41.774 0 0 1-10.598 28.531q-10.597 12.05-27.625 14.764l42.933 67.932h-26.267l-43.839-67.57h-67.389zm0-22.644h82.243q12.5 0 19.112-5.4346 6.6101-5.4346 6.6118-15.579 0-10.143-6.6118-15.488-6.6152-5.3416-19.112-5.3442h-82.243v41.846z"/><path class="a" transform="translate(-1.5394)" d="m1791.8 97.771q37.86 0 61.048 21.647 23.186 21.65 23.188 56.248 0 34.964-22.735 55.886-22.736 20.922-61.501 20.923h-68.657v-154.7h68.657zm0.3623 22.282h-44.745v110.14h44.745q27.534 0 43.295-14.764 15.76-14.762 15.76-40.125 0-24.456-16.304-39.854-16.304-15.395-42.752-15.398z"/><path class="b" transform="translate(-1.5394)" d="m401.21 304.63v18.614h-6.3467v-40.448h37.37v5.9204h-31.023v10.088h20.035v5.8257h-20.035z"/><path class="b" transform="translate(-1.5394)" d="m426.78 323.24 20.556-40.448h3.9785l20.745 40.448h-6.773l-5.2574-10.278h-21.361l-5.21 10.278h-6.6782zm14.635-15.63h15.819l-7.8623-15.488z"/><path class="b" transform="translate(-1.5394)" d="m476.56 318.08 3.0786-5.3047a35.512 35.512 0 0 0 9.0938 4.3574 31.144 31.144 0 0 0 9.4253 1.563 15.505 15.505 0 0 0 8.7148-2.2022 6.5827 6.5827 0 0 0 3.3154-5.6602 5.5059 5.5059 0 0 0-3.0312-5.1387q-3.0315-1.6809-9.5674-1.8711-11.036-0.14209-15.156-2.5576-4.1206-2.4155-4.1206-8.0044a9.7851 9.7851 0 0 1 4.523-8.3833q4.5227-3.1728 12.149-3.1733a35.061 35.061 0 0 1 10.112 1.4682 37.803 37.803 0 0 1 9.4492 4.3574l-3.1733 5.2573a31.907 31.907 0 0 0-8.1465-3.9546 27.298 27.298 0 0 0-8.3359-1.3975 14.736 14.736 0 0 0-7.3887 1.6104 4.7835 4.7835 0 0 0-2.7944 4.2153 3.9383 3.9383 0 0 0 2.8184 3.8364q2.8169 1.1367 9.7803 1.1367 9.6621 0 14.588 3.2681 4.9255 3.2681 4.9258 9.7095a11.509 11.509 0 0 1-4.9971 9.52q-4.9973 3.7888-12.954 3.7891a41.784 41.784 0 0 1-11.675-1.6812 40.763 40.763 0 0 1-10.633-4.7602z"/><path class="b" transform="translate(-1.5394)" d="m539.6 323.24v-34.812h-17.051v-5.6362h40.448v5.6362h-17.098v34.812h-6.2993z"/><path class="b" transform="translate(-1.5394)" d="m576.06 331.48a38.394 38.394 0 0 0 2.4629-4.1206 27.126 27.126 0 0 0 1.7051-4.1206h-0.37891a3.0036 3.0036 0 0 1-2.4394-1.208 4.718 4.718 0 0 1-0.9707-3.0547 4.8304 4.8304 0 0 1 1.1602-3.3389 3.7377 3.7377 0 0 1 2.9131-1.3027 3.7862 3.7862 0 0 1 3.2207 1.7285 7.8996 7.8996 0 0 1 1.2314 4.6655 11.548 11.548 0 0 1-1.7998 5.7075 34.646 34.646 0 0 1-5.352 6.7017z"/><path class="b" transform="translate(-1.5394)" d="m639.67 323.24v-40.448h5.2573l16.577 23.682 16.577-23.682h5.2573v40.448h-6.2993v-29.081l-15.535 22.498-15.488-22.498v29.081h-6.3466z"/><path class="b" transform="translate(-1.5394)" d="m720.37 324.52q-10.799 0-17.761-6.1099a20.39 20.39 0 0 1-0.02393-30.668q6.9382-6.0381 17.785-6.0386 10.941 0 17.88 6.0151a20.442 20.442 0 0 1-0.02393 30.715q-6.9624 6.0872-17.856 6.0864zm0-5.9204q8.0991 0 13.214-4.3809a14.671 14.671 0 0 0-0.02393-22.285q-5.1394-4.4048-13.19-4.4048-8.0522 0-13.144 4.3809a14.764 14.764 0 0 0 0 22.309q5.0911 4.3814 13.144 4.3809z"/><path class="b" transform="translate(-1.5394)" d="m775.46 282.79q9.8987 0 15.961 5.6602 6.0623 5.6602 6.0625 14.706 0 9.1414-5.9438 14.611-5.9451 5.4712-16.08 5.4707h-17.951v-40.448h17.951zm0.09473 5.8257h-11.699v28.797h11.699q7.199 0 11.32-3.8599 4.1206-3.8599 4.1206-10.491a13.686 13.686 0 0 0-4.2627-10.42q-4.2626-4.0254-11.178-4.0259z"/><path class="b" transform="translate(-1.5394)" d="m809.41 323.24v-40.448h37.938v5.9204h-31.591v10.088h20.745v5.8257h-20.745v12.788h33.344v5.8257h-39.69z"/><path class="b" transform="translate(-1.5394)" d="m866.48 305.57v17.666h-6.3466v-40.354h27.85q6.2044 0 9.7095 2.9839a10.301 10.301 0 0 1 3.5049 8.2886 10.926 10.926 0 0 1-2.7705 7.46 11.756 11.756 0 0 1-7.2231 3.8599l11.225 17.761h-6.8677l-11.462-17.666h-17.619zm0-5.9204h21.503a7.6927 7.6927 0 0 0 4.9966-1.4209 4.9717 4.9717 0 0 0 1.729-4.0732 4.9048 4.9048 0 0 0-1.729-4.0498 7.7901 7.7901 0 0 0-4.9966-1.397h-21.503v10.941z"/><path class="b" transform="translate(-1.5394)" d="m914.65 323.24v-40.448h3.3154l25.718 28.418v-28.418h6.2046v40.448h-3.3154l-25.671-28.323v28.323h-6.252z"/><path class="b" transform="translate(-1.5394)" d="m970.54 331.48a38.394 38.394 0 0 0 2.4629-4.1206 27.126 27.126 0 0 0 1.7051-4.1206h-0.37891a3.0036 3.0036 0 0 1-2.4394-1.208 4.718 4.718 0 0 1-0.9707-3.0547 4.8304 4.8304 0 0 1 1.1602-3.3389 3.7377 3.7377 0 0 1 2.9131-1.3028 3.7862 3.7862 0 0 1 3.2207 1.7285 7.8996 7.8996 0 0 1 1.2314 4.6655 11.548 11.548 0 0 1-1.7998 5.7075 34.646 34.646 0 0 1-5.352 6.7017z"/><path class="b" transform="translate(-1.5394)" d="m1030.7 318.08 3.0786-5.3047a35.512 35.512 0 0 0 9.0938 4.3574 31.144 31.144 0 0 0 9.4253 1.563 15.505 15.505 0 0 0 8.7148-2.2022 6.5827 6.5827 0 0 0 3.3154-5.6602 5.5059 5.5059 0 0 0-3.0312-5.1387q-3.0315-1.6809-9.5674-1.8711-11.036-0.14209-15.156-2.5576-4.1206-2.4155-4.1206-8.0044a9.7851 9.7851 0 0 1 4.523-8.3833q4.5227-3.1728 12.149-3.1733a35.061 35.061 0 0 1 10.112 1.4683 37.803 37.803 0 0 1 9.4492 4.3574l-3.1733 5.2573a31.907 31.907 0 0 0-8.1465-3.9546 27.298 27.298 0 0 0-8.3359-1.3975 14.736 14.736 0 0 0-7.3887 1.6104 4.7835 4.7835 0 0 0-2.7944 4.2153 3.9383 3.9383 0 0 0 2.8184 3.8364q2.8169 1.1367 9.7803 1.1367 9.6621 0 14.588 3.2681 4.9255 3.2681 4.9258 9.7095a11.509 11.509 0 0 1-4.9971 9.52q-4.9973 3.7888-12.954 3.7891a41.784 41.784 0 0 1-11.675-1.6812 40.763 40.763 0 0 1-10.633-4.7602z"/><path class="b" transform="translate(-1.5394)" d="m1084.1 323.24v-40.448h37.938v5.9204h-31.591v10.088h20.745v5.8257h-20.745v12.788h33.344v5.8257h-39.69z"/><path class="b" transform="translate(-1.5394)" d="m1177.6 313.34a22.946 22.946 0 0 1-9.0698 8.312 27.68 27.68 0 0 1-12.765 2.8657q-10.657 0-17.548-6.0386a20.531 20.531 0 0 1 0-30.691q6.8906-6.0857 17.548-6.0864a28.416 28.416 0 0 1 12.03 2.4868 21.89 21.89 0 0 1 8.7148 7.0332l-5.0205 3.5049a16.432 16.432 0 0 0-6.6074-5.3281 21.699 21.699 0 0 0-9.1172-1.8711 18.888 18.888 0 0 0-12.859 4.4287 14.637 14.637 0 0 0 0.02393 22.213 18.906 18.906 0 0 0 12.835 4.4287 20.434 20.434 0 0 0 9.52-2.1314 20.208 20.208 0 0 0 7.2466-6.6309z"/><path class="b" transform="translate(-1.5394)" d="m1190.2 282.89h6.3467v25.908q0 5.8257 2.7471 7.8623 2.7466 2.0369 10.894 2.0366 8.1936 0 10.941-2.0366 2.7466-2.0361 2.7471-7.8623v-25.908h6.2993v27.565q0 7.4363-4.7124 10.751-4.7139 3.3149-15.37 3.3154-10.61 0-15.251-3.2681-4.6421-3.2681-4.6416-10.799v-27.565z"/><path class="b" transform="translate(-1.5394)" d="m1252.4 305.57v17.666h-6.3467v-40.354h27.85q6.2043 0 9.7095 2.9839a10.301 10.301 0 0 1 3.5049 8.2886 10.926 10.926 0 0 1-2.7705 7.46 11.756 11.756 0 0 1-7.2231 3.8599l11.225 17.761h-6.8677l-11.462-17.666h-17.619zm0-5.9204h21.503a7.6927 7.6927 0 0 0 4.9966-1.4209 4.9717 4.9717 0 0 0 1.729-4.0732 4.9048 4.9048 0 0 0-1.729-4.0498 7.7901 7.7901 0 0 0-4.9966-1.397h-21.503v10.941z"/><path class="b" transform="translate(-1.5394)" d="m1300.5 323.24v-40.448h37.938v5.9204h-31.591v10.088h20.745v5.8257h-20.745v12.788h33.344v5.8257h-39.69z"/><path class="b" transform="translate(-1.5394)" d="m1403 323.24h-3.2681l-20.319-40.448h6.7256l15.204 30.265 14.967-30.265h6.9624z"/><path class="b" transform="translate(-1.5394)" d="m1439.6 305.57v17.666h-6.3467v-40.448h29.413q6.252 0 9.7334 2.96a10.32 10.32 0 0 1 3.481 8.3125 10.819 10.819 0 0 1-3.4575 8.2886 12.805 12.805 0 0 1-9.0938 3.2207h-23.729zm0-5.9204h23.066a7.6097 7.6097 0 0 0 4.9492-1.4209 5.6895 5.6895 0 0 0 0.07129-8.0991 7.0721 7.0721 0 0 0-4.7363-1.4209h-23.35v10.941z"/><path class="b" transform="translate(-1.5394)" d="m1486.8 323.24v-40.448h3.3154l25.718 28.418v-28.418h6.2046v40.448h-3.3154l-25.671-28.323v28.323h-6.252z"/><path class="b" transform="translate(-1.5394)" d="m1581.6 323.24v-34.812h-17.051v-5.6362h40.448v5.6362h-17.098v34.812h-6.2993z"/><path class="b" transform="translate(-1.5394)" d="m1613.3 282.89h6.3467v25.908q0 5.8257 2.7471 7.8623 2.7466 2.0369 10.894 2.0366 8.1936 0 10.941-2.0366 2.7466-2.0361 2.7471-7.8623v-25.908h6.2993v27.565q0 7.4363-4.7124 10.751-4.7139 3.3149-15.37 3.3154-10.61 0-15.251-3.2681-4.6421-3.2681-4.6416-10.799v-27.565z"/><path class="b" transform="translate(-1.5394)" d="m1669.2 323.24v-40.448h3.3154l25.718 28.418v-28.418h6.2046v40.448h-3.3154l-25.671-28.323v28.323h-6.252z"/><path class="b" transform="translate(-1.5394)" d="m1720.3 323.24v-40.448h3.3154l25.718 28.418v-28.418h6.2046v40.448h-3.3154l-25.671-28.323v28.323h-6.252z"/><path class="b" transform="translate(-1.5394)" d="m1771.3 323.24v-40.448h37.938v5.9204h-31.591v10.088h20.745v5.8257h-20.745v12.788h33.344v5.8257h-39.69z"/><path class="b" transform="translate(-1.5394)" d="m1822 323.24v-40.448h6.3467v34.623h30.028v5.8257h-36.375z"/><path class="a" transform="translate(-1.5394)" d="m301.28 145.56s6.9396-145.56-153.04-145.56c-141.48 0-145.9 139.63-145.9 139.63s-20.811 160.37 149.16 160.37c163.02 0 149.78-154.44 149.78-154.44zm-197.8-50.863c30.017-18.364 68.366-7.1401 82.735 20.476 2.7233 5.2338 3.0694 13.291 1.3447 18.782-5.9546 18.956-20.014 29.587-39.312 34.103 5.6892-4.8707 10.218-10.394 11.659-18.025a26.402 26.402 0 0 0-4.5425-20.956 26.76 26.76 0 0 0-30.811-9.3892c-11.881 4.5111-18.389 15.354-17.216 28.683 1.0898 12.381 10.484 20.405 28.061 23.453-2.627 1.3904-4.6503 2.4144-6.6299 3.5172a63.918 63.918 0 0 0-20.544 17.868c-1.7839 2.4084-3.0104 2.6024-5.727 0.94116-35.338-21.61-37.609-75.844 0.98226-99.453zm-26.449 133.53c-5.6769 1.441-11.178 3.5742-16.981 5.4775 2.8385-19.151 25.265-36.788 44.23-34.776a48.881 48.881 0 0 0-9.242 25.893c-6.302 1.1606-12.241 1.9414-18.007 3.405zm120.79-186.98c5.6099 0.20612 11.23 0.12091 16.844 0.25378a29.052 29.052 0 0 1 4.1674 0.58069 40.607 40.607 0 0 1-4.2357 5.4332c-2.007 1.8701-4.2745 3.6986-7.1661 0.856-0.6955-0.68372-2.3386-0.52679-3.5487-0.54272-5.5823-0.07336-11.172-0.25177-16.746-0.04132a104.04 104.04 0 0 0-14.425 1.473c-0.89368 0.16046-2.2299 3.1315-1.8191 4.227 0.9693 2.5853 2.3833 5.4363 4.4779 7.0898 7.7403 6.11 15.972 11.596 23.748 17.664 7.556 5.8966 14.589 12.358 18.875 21.253 5.5843 11.59 5.747 23.743 3.3388 35.95-4.0203 20.378-14.333 37.261-31.032 49.524-6.7288 4.941-15.06 7.7451-22.767 11.295-6.778 3.1225-13.755 5.8115-20.549 8.9008-12.249 5.5695-19.133 18.865-17.108 32.688 1.8585 12.685 12.987 23.271 25.735 25.456 15.292 2.6216 31.071-7.3163 34.812-22.86 4.2067-17.478-5.2898-33.083-23.065-37.813-0.78271-0.20831-1.5684-0.40552-3.2012-0.8269 4.7549-2.1245 8.8614-3.6381 12.653-5.7244q9.9213-5.4594 19.481-11.562c1.8742-1.199 2.8868-1.1996 4.4852 0.18225 12.225 10.57 19.518 23.718 21.563 39.839 3.3845 26.684-9.2471 51.198-33.072 63.762-36.86 19.439-81.965-2.6864-90.106-43.552-6.9738-35.003 17.73-66.754 47.462-72.884 12.787-2.6364 24.48-7.9596 33.57-17.807 5.8652-6.3541 8.7084-11.806 9.6772-14.266a39.565 39.565 0 0 0 2.7211-14.469 33.867 33.867 0 0 0-2.9654-12.398c-3.104-7.075-14.995-18.33-17.939-20.704l-28-21.921c-0.98761-0.81256-2.0994-0.75366-4.5079-0.59045-2.8611 0.19391-10.175 0.59888-13.331-0.22815 2.553-1.9321 9.5132-4.7451 12.502-7.007-9.0734-6.1297-19.43-3.9158-28.941-5.7461 2.1992-4.0959 13.081-10.39 19.27-11.091a91.533 91.533 0 0 0-1.6876-10.281c-0.37781-1.3917-1.9312-2.7408-3.2864-3.5355-3.286-1.9267-6.7694-3.5167-10.549-5.4327a21.936 21.936 0 0 1 11.332-3.5055 42.316 42.316 0 0 1 11.348 1.1056c6.7422 1.5405 12.124 0.53491 17.488-4.048-4.222-1.7002-8.4435-3.2535-12.538-5.0907a123.04 123.04 0 0 1-11.779-6.1583c10.622 1.4755 20.896 5.4585 31.757 4.0034q0.1387-0.74048 0.27728-1.4809c-8.1194-1.8899-16.239-3.7798-25.229-5.8724 15.04-1.3769 29.042-1.604 42.301 4.8541 3.731 1.8173 7.6348 3.3215 11.211 5.3972 1.7443 1.0124 2.9186 3.0078 4.3496 4.5594 1.1366 1.2325 2.0495 2.8837 3.446 3.6264 5.3 2.8184 11.134 2.9291 17.078 2.7879 0.04443-0.67694 0.08606-1.3114 0.1308-1.9933 5.9821 1.8693 12.715 8.7679 12.704 13.806-9.6911 0-19.374-0.037-29.056 0.05389-1.0348 0.0097-2.0626 0.76563-3.0936 1.1754 0.97986 0.57067 1.9428 1.5994 2.9423 1.6362z"/><path class="a" transform="translate(-1.5394)" d="m185.32 26.906a1.4806 1.4806 0 0 0-0.18927 2.3686 2.2326 2.2326 0 0 0 3.0724 0.8219c0.9328-0.47052 1.8478-0.97137 2.975-1.5665-0.9079-0.775-1.6362-1.4148-2.3857-2.0324-1.318-1.086-2.411-0.40386-3.4724 0.40833z"/><g transform="translate(293.8 179.57)" stroke-width="1px"><path d="m1566.2-95.856h-1.24c-7.56 0.08-11.84 6.64-11.84 13 0 6.16 3.92 12.32 12.2 12.32h0.56c8.6-0.24 12.36-6.16 12.36-12.24v-0.72c-0.28-6.36-4.84-12.36-12.04-12.36zm-5.52 5.16v14.44h1.8v-12.96h3.4c1.88 0 2.8 1.16 2.8 2.32 0 1.4-1.36 3-3.8 3-0.36 0-0.84-0.08-1.28-0.16l5.44 7.8h2.36l-4.92-6.64c2.4-0.44 4-2.36 4-4.24 0-1.76-1.52-3.56-4.88-3.56zm-3.44 0.28c2.52-2.72 5.16-3.72 8.24-3.72h1.28c5.48 0.24 9.44 5.8 9.44 11.16 0 0.76-0.08 1.64-0.24 2.36-0.84 4.92-5.12 8.36-10.08 8.36-0.12 0-0.36 0.04-0.48 0.04-6.28 0-10.28-5.68-10.28-11.36 0-0.48 0.08-1.12 0.12-1.64 0 0 0.28-3.12 2-5.2z"/></g></svg>
